<svg width="111" height="60" viewBox="0 0 111 60" fill="none" xmlns="http://www.w3.org/2000/svg">
<path d="M1.364 50L3.938 33.72H10.12C11.5427 33.72 12.65 33.9547 13.442 34.424C14.2487 34.8933 14.806 35.5533 15.114 36.404C15.4367 37.24 15.598 38.2373 15.598 39.396C15.598 39.8653 15.576 40.3493 15.532 40.848C15.488 41.3467 15.422 41.8527 15.334 42.366C15.1287 43.686 14.8133 44.83 14.388 45.798C13.9773 46.7513 13.4493 47.5433 12.804 48.174C12.1587 48.79 11.396 49.252 10.516 49.56C9.636 49.8533 8.624 50 7.48 50H1.364ZM5.082 47.074H7.81C8.44067 47.074 8.99067 46.9567 9.46 46.722C9.944 46.4873 10.3547 46.15 10.692 45.71C11.044 45.2553 11.33 44.7053 11.55 44.06C11.77 43.4147 11.946 42.6667 12.078 41.816C12.1513 41.3173 12.21 40.87 12.254 40.474C12.298 40.078 12.32 39.7627 12.32 39.528C12.32 38.8387 12.2247 38.2887 12.034 37.878C11.8433 37.4527 11.528 37.1447 11.088 36.954C10.648 36.7487 10.054 36.646 9.306 36.646H6.732L5.082 47.074ZM18.8215 36.448C18.6895 36.448 18.5868 36.4113 18.5135 36.338C18.4402 36.25 18.4182 36.14 18.4475 36.008L18.7775 33.852C18.8362 33.544 19.0122 33.39 19.3055 33.39H21.8135C21.9602 33.39 22.0555 33.434 22.0995 33.522C22.1582 33.61 22.1802 33.72 22.1655 33.852L21.8355 36.008C21.7768 36.3013 21.6082 36.448 21.3295 36.448H18.8215ZM16.2915 50L18.1395 38.186H21.4175L19.5475 50H16.2915ZM21.8775 50L23.7255 38.186H26.4315L26.8055 39.396C27.3188 39.0147 27.9128 38.692 28.5875 38.428C29.2768 38.164 30.0395 38.032 30.8755 38.032C31.5355 38.032 32.0855 38.1493 32.5255 38.384C32.9655 38.6187 33.2955 38.934 33.5155 39.33C33.7501 39.726 33.8675 40.1807 33.8675 40.694C33.8675 40.9433 33.8528 41.2293 33.8235 41.552C33.8088 41.8747 33.7355 42.4027 33.6035 43.136L32.5255 50H29.2695L30.3255 43.246C30.3695 42.938 30.3988 42.7107 30.4135 42.564C30.4428 42.4173 30.4575 42.3 30.4575 42.212C30.4575 41.8307 30.3475 41.53 30.1275 41.31C29.9075 41.0753 29.5408 40.958 29.0275 40.958C28.5288 40.958 28.0668 41.0533 27.6415 41.244C27.2161 41.42 26.8055 41.6547 26.4095 41.948L25.1335 50H21.8775ZM37.384 55.126L34.458 54.928L34.81 52.684H38.528C39.1 52.684 39.606 52.6253 40.046 52.508C40.5007 52.4053 40.8673 52.2147 41.146 51.936C41.4393 51.6573 41.6227 51.2687 41.696 50.77L42.026 48.812C41.7327 49.0613 41.3733 49.2887 40.948 49.494C40.5373 49.6847 40.1047 49.8387 39.65 49.956C39.21 50.0733 38.7847 50.132 38.374 50.132C37.6847 50.132 37.1053 49.9487 36.636 49.582C36.1813 49.2153 35.844 48.724 35.624 48.108C35.404 47.492 35.294 46.8173 35.294 46.084C35.294 45.7027 35.3233 45.2627 35.382 44.764C35.4407 44.2507 35.4993 43.774 35.558 43.334C35.7193 42.322 35.9833 41.4787 36.35 40.804C36.7313 40.1147 37.1933 39.572 37.736 39.176C38.2787 38.78 38.8873 38.494 39.562 38.318C40.2367 38.142 40.9627 38.054 41.74 38.054C42.8547 38.054 43.852 38.1347 44.732 38.296C45.6267 38.4573 46.338 38.6187 46.866 38.78L44.886 51.276C44.754 52.068 44.4973 52.7353 44.116 53.278C43.7347 53.8207 43.2287 54.2387 42.598 54.532C41.9673 54.84 41.2193 55.038 40.354 55.126C39.4887 55.214 38.4987 55.214 37.384 55.126ZM40.024 47.514C40.464 47.514 40.8673 47.4407 41.234 47.294C41.6153 47.1327 41.982 46.9347 42.334 46.7L43.28 40.826C43.0013 40.782 42.7153 40.7527 42.422 40.738C42.1433 40.7087 41.8647 40.6867 41.586 40.672C41.102 40.6573 40.6693 40.7527 40.288 40.958C39.9067 41.1633 39.584 41.4933 39.32 41.948C39.0707 42.388 38.88 42.9747 38.748 43.708C38.6747 44.1627 38.6233 44.5147 38.594 44.764C38.5647 44.9987 38.55 45.2553 38.55 45.534C38.55 46.194 38.682 46.6927 38.946 47.03C39.2247 47.3527 39.584 47.514 40.024 47.514ZM47.6178 44.94L48.0138 42.3H54.7458L54.3498 44.94H47.6178ZM55.3328 50L57.9068 33.72H64.0888C65.5114 33.72 66.6188 33.9547 67.4108 34.424C68.2174 34.8933 68.7748 35.5533 69.0828 36.404C69.4054 37.24 69.5668 38.2373 69.5668 39.396C69.5668 39.8653 69.5448 40.3493 69.5008 40.848C69.4568 41.3467 69.3908 41.8527 69.3028 42.366C69.0974 43.686 68.7821 44.83 68.3568 45.798C67.9461 46.7513 67.4181 47.5433 66.7728 48.174C66.1274 48.79 65.3648 49.252 64.4848 49.56C63.6048 49.8533 62.5928 50 61.4488 50H55.3328ZM59.0508 47.074H61.7788C62.4094 47.074 62.9594 46.9567 63.4288 46.722C63.9128 46.4873 64.3234 46.15 64.6608 45.71C65.0128 45.2553 65.2988 44.7053 65.5188 44.06C65.7388 43.4147 65.9148 42.6667 66.0468 41.816C66.1201 41.3173 66.1788 40.87 66.2228 40.474C66.2668 40.078 66.2888 39.7627 66.2888 39.528C66.2888 38.8387 66.1934 38.2887 66.0028 37.878C65.8121 37.4527 65.4968 37.1447 65.0568 36.954C64.6168 36.7487 64.0228 36.646 63.2748 36.646H60.7008L59.0508 47.074ZM75.1494 50.132C74.1374 50.132 73.2868 49.978 72.5974 49.67C71.9081 49.362 71.3874 48.9073 71.0354 48.306C70.6834 47.7047 70.5074 46.942 70.5074 46.018C70.5074 45.5927 70.5221 45.204 70.5514 44.852C70.5808 44.4853 70.6248 44.126 70.6834 43.774C70.8741 42.6007 71.1308 41.64 71.4534 40.892C71.7908 40.144 72.2088 39.5647 72.7074 39.154C73.2208 38.7433 73.8294 38.4573 74.5334 38.296C75.2521 38.1347 76.0881 38.054 77.0414 38.054C78.2881 38.054 79.2488 38.2153 79.9234 38.538C80.5981 38.846 81.0601 39.3153 81.3094 39.946C81.5588 40.5767 81.6834 41.3833 81.6834 42.366C81.6834 42.718 81.6614 43.0993 81.6174 43.51C81.5881 43.906 81.5441 44.3167 81.4854 44.742C81.2654 46.1647 80.8988 47.272 80.3854 48.064C79.8721 48.856 79.1901 49.3987 78.3394 49.692C77.4888 49.9853 76.4254 50.132 75.1494 50.132ZM75.5014 47.514C75.9268 47.514 76.2861 47.47 76.5794 47.382C76.8874 47.2793 77.1368 47.118 77.3274 46.898C77.5328 46.6633 77.7014 46.3333 77.8334 45.908C77.9801 45.468 78.1121 44.918 78.2294 44.258C78.2881 43.8473 78.3321 43.4807 78.3614 43.158C78.4054 42.8207 78.4274 42.5053 78.4274 42.212C78.4274 41.6253 78.2881 41.2147 78.0094 40.98C77.7308 40.7307 77.2688 40.606 76.6234 40.606C76.1834 40.606 75.8168 40.6573 75.5234 40.76C75.2301 40.8627 74.9808 41.046 74.7754 41.31C74.5701 41.574 74.3941 41.948 74.2474 42.432C74.1154 42.916 73.9908 43.5247 73.8734 44.258C73.8294 44.566 73.7928 44.852 73.7634 45.116C73.7488 45.38 73.7414 45.6293 73.7414 45.864C73.7414 46.304 73.8074 46.6413 73.9394 46.876C74.0861 47.1107 74.2841 47.2793 74.5334 47.382C74.7974 47.47 75.1201 47.514 75.5014 47.514ZM82.6782 50L84.5262 38.186H87.2322L87.6062 39.396C88.1196 39.0147 88.7136 38.692 89.3882 38.428C90.0776 38.164 90.8402 38.032 91.6762 38.032C92.3362 38.032 92.8862 38.1493 93.3262 38.384C93.7662 38.6187 94.0962 38.934 94.3162 39.33C94.5509 39.726 94.6682 40.1807 94.6682 40.694C94.6682 40.9433 94.6536 41.2293 94.6242 41.552C94.6096 41.8747 94.5362 42.4027 94.4042 43.136L93.3262 50H90.0702L91.1262 43.246C91.1702 42.938 91.1996 42.7107 91.2142 42.564C91.2436 42.4173 91.2582 42.3 91.2582 42.212C91.2582 41.8307 91.1482 41.53 90.9282 41.31C90.7082 41.0753 90.3416 40.958 89.8282 40.958C89.3296 40.958 88.8676 41.0533 88.4422 41.244C88.0169 41.42 87.6062 41.6547 87.2102 41.948L85.9342 50H82.6782ZM98.1848 55.126L95.2588 54.928L95.6108 52.684H99.3288C99.9008 52.684 100.407 52.6253 100.847 52.508C101.301 52.4053 101.668 52.2147 101.947 51.936C102.24 51.6573 102.423 51.2687 102.497 50.77L102.827 48.812C102.533 49.0613 102.174 49.2887 101.749 49.494C101.338 49.6847 100.905 49.8387 100.451 49.956C100.011 50.0733 99.5855 50.132 99.1748 50.132C98.4855 50.132 97.9061 49.9487 97.4368 49.582C96.9821 49.2153 96.6448 48.724 96.4248 48.108C96.2048 47.492 96.0948 46.8173 96.0948 46.084C96.0948 45.7027 96.1241 45.2627 96.1828 44.764C96.2415 44.2507 96.3001 43.774 96.3588 43.334C96.5201 42.322 96.7841 41.4787 97.1508 40.804C97.5321 40.1147 97.9941 39.572 98.5368 39.176C99.0795 38.78 99.6881 38.494 100.363 38.318C101.037 38.142 101.763 38.054 102.541 38.054C103.655 38.054 104.653 38.1347 105.533 38.296C106.427 38.4573 107.139 38.6187 107.667 38.78L105.687 51.276C105.555 52.068 105.298 52.7353 104.917 53.278C104.535 53.8207 104.029 54.2387 103.399 54.532C102.768 54.84 102.02 55.038 101.155 55.126C100.289 55.214 99.2995 55.214 98.1848 55.126ZM100.825 47.514C101.265 47.514 101.668 47.4407 102.035 47.294C102.416 47.1327 102.783 46.9347 103.135 46.7L104.081 40.826C103.802 40.782 103.516 40.7527 103.223 40.738C102.944 40.7087 102.665 40.6867 102.387 40.672C101.903 40.6573 101.47 40.7527 101.089 40.958C100.707 41.1633 100.385 41.4933 100.121 41.948C99.8715 42.388 99.6808 42.9747 99.5488 43.708C99.4755 44.1627 99.4241 44.5147 99.3948 44.764C99.3655 44.9987 99.3508 45.2553 99.3508 45.534C99.3508 46.194 99.4828 46.6927 99.7468 47.03C100.025 47.3527 100.385 47.514 100.825 47.514Z" fill="#3E54AC"/>
<path d="M66 14C66.2652 14 66.5196 13.8946 66.7071 13.7071C66.8946 13.5196 67 13.2652 67 13V8C67 7.46957 66.7893 6.96086 66.4142 6.58579C66.0391 6.21071 65.5304 6 65 6H41C40.4696 6 39.9609 6.21071 39.5858 6.58579C39.2107 6.96086 39 7.46957 39 8V13C39 13.2652 39.1054 13.5196 39.2929 13.7071C39.4804 13.8946 39.7348 14 40 14C40.5304 14 41.0391 14.2107 41.4142 14.5858C41.7893 14.9609 42 15.4696 42 16C42 16.5304 41.7893 17.0391 41.4142 17.4142C41.0391 17.7893 40.5304 18 40 18C39.7348 18 39.4804 18.1054 39.2929 18.2929C39.1054 18.4804 39 18.7348 39 19V24C39 24.5304 39.2107 25.0391 39.5858 25.4142C39.9609 25.7893 40.4696 26 41 26H65C65.5304 26 66.0391 25.7893 66.4142 25.4142C66.7893 25.0391 67 24.5304 67 24V19C67 18.7348 66.8946 18.4804 66.7071 18.2929C66.5196 18.1054 66.2652 18 66 18C65.4696 18 64.9609 17.7893 64.5858 17.4142C64.2107 17.0391 64 16.5304 64 16C64 15.4696 64.2107 14.9609 64.5858 14.5858C64.9609 14.2107 65.4696 14 66 14ZM65 19.87V24H58V21H56V24H41V19.87C41.856 19.6463 42.6137 19.1451 43.1544 18.4448C43.6952 17.7445 43.9885 16.8848 43.9885 16C43.9885 15.1152 43.6952 14.2555 43.1544 13.5552C42.6137 12.8549 41.856 12.3537 41 12.13V8H56V11H58V8H65V12.13C64.144 12.3537 63.3863 12.8549 62.8456 13.5552C62.3048 14.2555 62.0115 15.1152 62.0115 16C62.0115 16.8848 62.3048 17.7445 62.8456 18.4448C63.3863 19.1451 64.144 19.6463 65 19.87Z" fill="#3E54AC"/>
<path d="M56 13H58V19H56V13Z" fill="#3E54AC"/>
</svg>
