<svg width="119" height="38" viewBox="0 0 119 38" fill="none" xmlns="http://www.w3.org/2000/svg">
<g clip-path="url(#clip0_44_43)">
<rect width="119" height="38" fill="white"/>
<path d="M5.364 25L7.938 8.72H14.12C15.5427 8.72 16.65 8.95467 17.442 9.424C18.2487 9.89333 18.806 10.5533 19.114 11.404C19.4367 12.24 19.598 13.2373 19.598 14.396C19.598 14.8653 19.576 15.3493 19.532 15.848C19.488 16.3467 19.422 16.8527 19.334 17.366C19.1287 18.686 18.8133 19.83 18.388 20.798C17.9773 21.7513 17.4493 22.5433 16.804 23.174C16.1587 23.79 15.396 24.252 14.516 24.56C13.636 24.8533 12.624 25 11.48 25H5.364ZM9.082 22.074H11.81C12.4407 22.074 12.9907 21.9567 13.46 21.722C13.944 21.4873 14.3547 21.15 14.692 20.71C15.044 20.2553 15.33 19.7053 15.55 19.06C15.77 18.4147 15.946 17.6667 16.078 16.816C16.1513 16.3173 16.21 15.87 16.254 15.474C16.298 15.078 16.32 14.7627 16.32 14.528C16.32 13.8387 16.2247 13.2887 16.034 12.878C15.8433 12.4527 15.528 12.1447 15.088 11.954C14.648 11.7487 14.054 11.646 13.306 11.646H10.732L9.082 22.074ZM22.8215 11.448C22.6895 11.448 22.5868 11.4113 22.5135 11.338C22.4402 11.25 22.4182 11.14 22.4475 11.008L22.7775 8.852C22.8362 8.544 23.0122 8.39 23.3055 8.39H25.8135C25.9602 8.39 26.0555 8.434 26.0995 8.522C26.1582 8.61 26.1802 8.72 26.1655 8.852L25.8355 11.008C25.7768 11.3013 25.6082 11.448 25.3295 11.448H22.8215ZM20.2915 25L22.1395 13.186H25.4175L23.5475 25H20.2915ZM25.8775 25L27.7255 13.186H30.4315L30.8055 14.396C31.3188 14.0147 31.9128 13.692 32.5875 13.428C33.2768 13.164 34.0395 13.032 34.8755 13.032C35.5355 13.032 36.0855 13.1493 36.5255 13.384C36.9655 13.6187 37.2955 13.934 37.5155 14.33C37.7501 14.726 37.8675 15.1807 37.8675 15.694C37.8675 15.9433 37.8528 16.2293 37.8235 16.552C37.8088 16.8747 37.7355 17.4027 37.6035 18.136L36.5255 25H33.2695L34.3255 18.246C34.3695 17.938 34.3988 17.7107 34.4135 17.564C34.4428 17.4173 34.4575 17.3 34.4575 17.212C34.4575 16.8307 34.3475 16.53 34.1275 16.31C33.9075 16.0753 33.5408 15.958 33.0275 15.958C32.5288 15.958 32.0668 16.0533 31.6415 16.244C31.2161 16.42 30.8055 16.6547 30.4095 16.948L29.1335 25H25.8775ZM41.384 30.126L38.458 29.928L38.81 27.684H42.528C43.1 27.684 43.606 27.6253 44.046 27.508C44.5007 27.4053 44.8673 27.2147 45.146 26.936C45.4393 26.6573 45.6227 26.2687 45.696 25.77L46.026 23.812C45.7327 24.0613 45.3733 24.2887 44.948 24.494C44.5373 24.6847 44.1047 24.8387 43.65 24.956C43.21 25.0733 42.7847 25.132 42.374 25.132C41.6847 25.132 41.1053 24.9487 40.636 24.582C40.1813 24.2153 39.844 23.724 39.624 23.108C39.404 22.492 39.294 21.8173 39.294 21.084C39.294 20.7027 39.3233 20.2627 39.382 19.764C39.4407 19.2507 39.4993 18.774 39.558 18.334C39.7193 17.322 39.9833 16.4787 40.35 15.804C40.7313 15.1147 41.1933 14.572 41.736 14.176C42.2787 13.78 42.8873 13.494 43.562 13.318C44.2367 13.142 44.9627 13.054 45.74 13.054C46.8547 13.054 47.852 13.1347 48.732 13.296C49.6267 13.4573 50.338 13.6187 50.866 13.78L48.886 26.276C48.754 27.068 48.4973 27.7353 48.116 28.278C47.7347 28.8207 47.2287 29.2387 46.598 29.532C45.9673 29.84 45.2193 30.038 44.354 30.126C43.4887 30.214 42.4987 30.214 41.384 30.126ZM44.024 22.514C44.464 22.514 44.8673 22.4407 45.234 22.294C45.6153 22.1327 45.982 21.9347 46.334 21.7L47.28 15.826C47.0013 15.782 46.7153 15.7527 46.422 15.738C46.1433 15.7087 45.8647 15.6867 45.586 15.672C45.102 15.6573 44.6693 15.7527 44.288 15.958C43.9067 16.1633 43.584 16.4933 43.32 16.948C43.0707 17.388 42.88 17.9747 42.748 18.708C42.6747 19.1627 42.6233 19.5147 42.594 19.764C42.5647 19.9987 42.55 20.2553 42.55 20.534C42.55 21.194 42.682 21.6927 42.946 22.03C43.2247 22.3527 43.584 22.514 44.024 22.514ZM51.6178 19.94L52.0138 17.3H58.7458L58.3498 19.94H51.6178ZM59.3328 25L61.9068 8.72H68.0888C69.5114 8.72 70.6188 8.95467 71.4108 9.424C72.2174 9.89333 72.7748 10.5533 73.0828 11.404C73.4054 12.24 73.5668 13.2373 73.5668 14.396C73.5668 14.8653 73.5448 15.3493 73.5008 15.848C73.4568 16.3467 73.3908 16.8527 73.3028 17.366C73.0974 18.686 72.7821 19.83 72.3568 20.798C71.9461 21.7513 71.4181 22.5433 70.7728 23.174C70.1274 23.79 69.3648 24.252 68.4848 24.56C67.6048 24.8533 66.5928 25 65.4488 25H59.3328ZM63.0508 22.074H65.7788C66.4094 22.074 66.9594 21.9567 67.4288 21.722C67.9128 21.4873 68.3234 21.15 68.6608 20.71C69.0128 20.2553 69.2988 19.7053 69.5188 19.06C69.7388 18.4147 69.9148 17.6667 70.0468 16.816C70.1201 16.3173 70.1788 15.87 70.2228 15.474C70.2668 15.078 70.2888 14.7627 70.2888 14.528C70.2888 13.8387 70.1934 13.2887 70.0028 12.878C69.8121 12.4527 69.4968 12.1447 69.0568 11.954C68.6168 11.7487 68.0228 11.646 67.2748 11.646H64.7008L63.0508 22.074ZM79.1494 25.132C78.1374 25.132 77.2868 24.978 76.5974 24.67C75.9081 24.362 75.3874 23.9073 75.0354 23.306C74.6834 22.7047 74.5074 21.942 74.5074 21.018C74.5074 20.5927 74.5221 20.204 74.5514 19.852C74.5808 19.4853 74.6248 19.126 74.6834 18.774C74.8741 17.6007 75.1308 16.64 75.4534 15.892C75.7908 15.144 76.2088 14.5647 76.7074 14.154C77.2208 13.7433 77.8294 13.4573 78.5334 13.296C79.2521 13.1347 80.0881 13.054 81.0414 13.054C82.2881 13.054 83.2488 13.2153 83.9234 13.538C84.5981 13.846 85.0601 14.3153 85.3094 14.946C85.5588 15.5767 85.6834 16.3833 85.6834 17.366C85.6834 17.718 85.6614 18.0993 85.6174 18.51C85.5881 18.906 85.5441 19.3167 85.4854 19.742C85.2654 21.1647 84.8988 22.272 84.3854 23.064C83.8721 23.856 83.1901 24.3987 82.3394 24.692C81.4888 24.9853 80.4254 25.132 79.1494 25.132ZM79.5014 22.514C79.9268 22.514 80.2861 22.47 80.5794 22.382C80.8874 22.2793 81.1368 22.118 81.3274 21.898C81.5328 21.6633 81.7014 21.3333 81.8334 20.908C81.9801 20.468 82.1121 19.918 82.2294 19.258C82.2881 18.8473 82.3321 18.4807 82.3614 18.158C82.4054 17.8207 82.4274 17.5053 82.4274 17.212C82.4274 16.6253 82.2881 16.2147 82.0094 15.98C81.7308 15.7307 81.2688 15.606 80.6234 15.606C80.1834 15.606 79.8168 15.6573 79.5234 15.76C79.2301 15.8627 78.9808 16.046 78.7754 16.31C78.5701 16.574 78.3941 16.948 78.2474 17.432C78.1154 17.916 77.9908 18.5247 77.8734 19.258C77.8294 19.566 77.7928 19.852 77.7634 20.116C77.7488 20.38 77.7414 20.6293 77.7414 20.864C77.7414 21.304 77.8074 21.6413 77.9394 21.876C78.0861 22.1107 78.2841 22.2793 78.5334 22.382C78.7974 22.47 79.1201 22.514 79.5014 22.514ZM86.6782 25L88.5262 13.186H91.2322L91.6062 14.396C92.1196 14.0147 92.7136 13.692 93.3882 13.428C94.0776 13.164 94.8402 13.032 95.6762 13.032C96.3362 13.032 96.8862 13.1493 97.3262 13.384C97.7662 13.6187 98.0962 13.934 98.3162 14.33C98.5509 14.726 98.6682 15.1807 98.6682 15.694C98.6682 15.9433 98.6536 16.2293 98.6242 16.552C98.6096 16.8747 98.5362 17.4027 98.4042 18.136L97.3262 25H94.0702L95.1262 18.246C95.1702 17.938 95.1996 17.7107 95.2142 17.564C95.2436 17.4173 95.2582 17.3 95.2582 17.212C95.2582 16.8307 95.1482 16.53 94.9282 16.31C94.7082 16.0753 94.3416 15.958 93.8282 15.958C93.3296 15.958 92.8676 16.0533 92.4422 16.244C92.0169 16.42 91.6062 16.6547 91.2102 16.948L89.9342 25H86.6782ZM102.185 30.126L99.2588 29.928L99.6108 27.684H103.329C103.901 27.684 104.407 27.6253 104.847 27.508C105.301 27.4053 105.668 27.2147 105.947 26.936C106.24 26.6573 106.423 26.2687 106.497 25.77L106.827 23.812C106.533 24.0613 106.174 24.2887 105.749 24.494C105.338 24.6847 104.905 24.8387 104.451 24.956C104.011 25.0733 103.585 25.132 103.175 25.132C102.485 25.132 101.906 24.9487 101.437 24.582C100.982 24.2153 100.645 23.724 100.425 23.108C100.205 22.492 100.095 21.8173 100.095 21.084C100.095 20.7027 100.124 20.2627 100.183 19.764C100.241 19.2507 100.3 18.774 100.359 18.334C100.52 17.322 100.784 16.4787 101.151 15.804C101.532 15.1147 101.994 14.572 102.537 14.176C103.079 13.78 103.688 13.494 104.363 13.318C105.037 13.142 105.763 13.054 106.541 13.054C107.655 13.054 108.653 13.1347 109.533 13.296C110.427 13.4573 111.139 13.6187 111.667 13.78L109.687 26.276C109.555 27.068 109.298 27.7353 108.917 28.278C108.535 28.8207 108.029 29.2387 107.399 29.532C106.768 29.84 106.02 30.038 105.155 30.126C104.289 30.214 103.299 30.214 102.185 30.126ZM104.825 22.514C105.265 22.514 105.668 22.4407 106.035 22.294C106.416 22.1327 106.783 21.9347 107.135 21.7L108.081 15.826C107.802 15.782 107.516 15.7527 107.223 15.738C106.944 15.7087 106.665 15.6867 106.387 15.672C105.903 15.6573 105.47 15.7527 105.089 15.958C104.707 16.1633 104.385 16.4933 104.121 16.948C103.871 17.388 103.681 17.9747 103.549 18.708C103.475 19.1627 103.424 19.5147 103.395 19.764C103.365 19.9987 103.351 20.2553 103.351 20.534C103.351 21.194 103.483 21.6927 103.747 22.03C104.025 22.3527 104.385 22.514 104.825 22.514Z" fill="#3E54AC"/>
</g>
<defs>
<clipPath id="clip0_44_43">
<rect width="119" height="38" fill="white"/>
</clipPath>
</defs>
</svg>
